<svg width="470" height="352" viewBox="0 0 470 352" fill="none" xmlns="http://www.w3.org/2000/svg">
<g clip-path="url(#clip0_9_34)">
<path d="M324.7 102.5C292.3 72.1001 254.3 64.3001 244.3 62.7001C251.1 44.5001 261.5 17.4001 264.1 13.4001C264.9 13.3001 266.6 13.1001 269.2 13.1001C276.6 13.1001 292.3 14.6001 315.2 24.9001C348.2 39.7001 357 56.4001 358.7 60.5001L324.7 102.5Z" fill="white"/>
<path d="M269.1 15.1001C276.3 15.1001 291.8 16.6001 314.2 26.7001C344 40.1001 353.6 55.1001 356.2 60.2001L324.4 99.6001C305.2 82.2001 284.6 72.5001 270.3 67.5001C260.2 63.9001 252 62.0001 247 61.1001C254.5 41.0001 262.6 20.4001 265.3 15.2001C266.2 15.2001 267.5 15.1001 269.1 15.1001ZM269.1 11.1001C265.1 11.1001 263 11.5001 263 11.5001C260.7 12.3001 241.5 64.3001 241.5 64.3001C241.5 64.3001 287.1 68.9001 324.8 105.4L360.8 60.8001C360.8 60.8001 354.8 40.5001 315.8 23.0001C293.1 12.8001 277.2 11.1001 269.1 11.1001Z" fill="#A0C6F4"/>
<path d="M248.2 68.4001C248.2 68.4001 293 72.9001 320.6 98.3001" stroke="#2A1E17" stroke-miterlimit="10" stroke-linecap="round" stroke-linejoin="round"/>
<path d="M286.9 66.2002L303.6 33.7002L320.8 67.6002L286.9 66.2002Z" fill="#A0C6F4"/>
<path d="M290.2 65.7002L306.9 33.2002L324 67.1002L290.2 65.7002Z" stroke="#2A1E17" stroke-miterlimit="10" stroke-linecap="round" stroke-linejoin="round"/>
<path d="M274.5 9.1001C274.5 9.1001 324.7 13.6001 356 50.7001" stroke="#2A1E17" stroke-miterlimit="10" stroke-linecap="round" stroke-linejoin="round"/>
<path d="M300.1 153.1C297.3 151.1 295.5 149.7 295.5 149.7C296.3 148.7 308.4 135.8 315.4 125.4C315.4 125.5 301.3 154 300.1 153.1Z" fill="#2A1E17"/>
<path d="M128.8 59.3C130.1 61.5 130.7 60.6 134.6 60.3C138.5 60 144 62.8 146 67.6C148 72.4 147.3 73.1 146.3 73.7C145.3 74.3 137.8 75.2 137.5 76.7" stroke="#2A1E17" stroke-miterlimit="10" stroke-linecap="round" stroke-linejoin="round"/>
<path d="M229.6 302.7L226.1 296.8L213.8 317.4L217 319.9L229.6 302.7Z" fill="#F9865F"/>
<path d="M147.5 251.6C147.5 251.6 141.1 241.2 143.8 236.1L164.2 238.3L147.5 251.6Z" fill="#F9865F"/>
<path d="M147.5 251.6L148.7 254.4L144.9 269.1C144.4 271 145 272.9 146.5 274.2L165.2 246.6C167 244 166.6 240.4 164.3 238.3L160.1 234.4L147.5 251.6Z" fill="black"/>
<path d="M137.5 76.8001C143.4 76.7001 150.8 76.3001 149.3 71.8001C147.8 67.3001 142.3 56.2001 129.6 59.6001C129.6 59.6001 125.1 63.3001 130.7 70.0001C136.3 76.6001 137.5 76.8001 137.5 76.8001Z" fill="#2A1E33"/>
<path d="M167.1 238.5C167.1 238.5 157.1 209 165.6 196C172.6 185.3 195.4 202.7 198.5 205L214.8 175.5C214.8 175.5 211 170.2 201.8 165.1C192.6 160 154.4 144.5 136.4 172.8C129.8 183.3 129.7 228.2 142.4 245.4L167.1 238.5Z" fill="#7595EC"/>
<path d="M167.1 238.5C167.1 238.5 157.1 209 165.6 196C172.6 185.3 195.4 202.7 198.5 205" stroke="#2A1E17" stroke-miterlimit="10" stroke-linecap="round" stroke-linejoin="round"/>
<path d="M214.8 175.7C207.4 183.5 185.4 221.5 180.4 239.7C173.8 264 176.3 284.2 212.6 323.7L230.2 298.1C230.2 298.1 217.8 279.3 220.1 261.6C223.4 236 241.6 211.2 250.9 195.5L214.8 175.7Z" fill="#7595EC"/>
<path d="M217.6 179L246.8 201.9L255.6 188.6L217.6 179Z" fill="#2A1E17"/>
<path d="M385.5 154.8C390.1 155.8 393.5 157.5 395.9 160C398.3 162.5 397.2 163.8 396.3 164.6C395.4 165.4 392.1 164.5 389.1 161.9C386.1 159.3 385.5 154.8 385.5 154.8Z" fill="#FF8A66"/>
<path d="M295.6 149.7C296.4 148.7 308.5 135.8 315.5 125.4C315.5 125.4 336.7 149.1 338.9 149.9C339.8 150.2 344.9 150.1 351.4 150C362.3 149.9 376.8 149.8 380 151.4C385.1 153.9 388.2 155.2 389.4 158.8C390.7 162.4 391.2 164.7 388.1 164.9C384.5 165.2 382.2 160.6 382.2 160.6C382.2 160.6 379.3 162.4 371.8 165.2C371.8 165.2 344.7 175.7 326.6 170.6C321.6 169.3 295.6 149.7 295.6 149.7Z" fill="#F9865F"/>
<path d="M131.2 55.1001C128.9 56.0001 127.5 57.0001 128.8 59.3001C130.1 61.5001 130.7 60.6001 134.6 60.3001C138.5 60.0001 144 62.8001 146 67.6001C148 72.4001 147.3 73.1001 146.3 73.7001C145.3 74.3001 137.8 75.2001 137.5 76.7001C137.2 78.2001 140.5 82.6001 147.4 82.3001L149 82.0001C149 82.0001 163.5 96.1001 165.6 98.2001C167.7 100.3 183.1 110.7 191.6 112.8C198 114.4 211.1 112.3 218.9 110.8C222.7 110.1 225.3 109.4 225.3 109.4C225.3 109.4 219.4 98.8001 218.2 82.5001C218.2 82.5001 204.1 84.8001 194.8 86.8001C194.8 86.8001 173 74.6001 162.3 69.2001C162.3 69.2001 153 57.8001 148.7 56.3001C144.4 55.1001 134.4 53.9001 131.2 55.1001Z" fill="#F9865F"/>
<path d="M218.9 110.9C222.7 110.2 225.3 109.5 225.3 109.5C225.3 109.5 218.2 100.5 217 84.2C217 84.2 213.8 87.7 214.8 96.9C216.1 108.6 218.9 110.9 218.9 110.9Z" fill="#2A1E17"/>
<path d="M216.7 82.5C216.7 82.5 216.9 102.4 222.2 110.7L224.1 109.9C224.1 109.9 198.9 139.3 190.8 158.6C189.5 161.7 243 196 250.9 195.5C250.9 195.5 277 155.7 285.9 143.9L295.5 151.3C295.5 151.3 314.3 132.2 315.3 125.5C315.3 125.5 297.1 103.4 282.3 96.9C267.4 90.4 254.1 79.3 238.2 79.6C224.4 79.9 216.7 82.5 216.7 82.5Z" fill="#FFF7C9"/>
<path d="M295.6 151.3L286 143.8L287.5 139.7L295.6 151.3Z" fill="#2A1E17"/>
<path d="M310.2 72.5C308.5 77.7 303.7 92.8 298.3 94.7C292.9 96.6 287.3 94.2 287.3 94.2L281.5 97.1C280.9 99 276.3 100.7 270.4 100.9C266.1 101.1 263.4 95.5 264.7 91.4C265.3 89.5 267.5 80.4 267.5 80.4C267.5 80.4 272.2 63.2 276.5 59.7C280.8 56.2 284.8 52.6 296.3 57.3C313.7 64.5 310.2 72.5 310.2 72.5Z" fill="#F9865F"/>
<path d="M275.4 73.2001C274.6 76.4001 271.3 82.8001 269.1 81.7001C266.9 80.5001 266.1 77.6001 267.7 71.9001C269.3 66.2001 270.5 53.4001 274.9 51.1001C279.3 48.8001 281.2 51.5001 281.2 51.5001C281.2 51.5001 279.3 42.1001 284.9 40.9001C284.9 40.9001 286.8 40.0001 286.1 46.4001C286.1 46.4001 288.3 40.5001 295.3 41.3001C302.3 42.1001 304.8 51.9001 304.8 51.9001C304.8 51.9001 305.3 49.2001 308.5 49.2001C311.7 49.2001 316.6 53.9001 315.4 59.2001C315.4 59.2001 323.6 56.6001 328 63.2001C332.4 69.7001 331.8 76.9001 321.3 79.8001C310.3 82.8001 310.4 69.9001 308.7 68.3001C307 66.6001 305.2 64.7001 299.1 67.0001C292.9 69.3001 286.5 62.5001 286.5 62.5001C286.5 62.5001 285.5 70.7001 284.4 71.5001C283.4 72.3001 281.3 73.3001 281.8 69.4001C282.3 65.6001 283 65.9001 282.6 64.9001C282.2 63.9001 280.5 60.6001 276.8 63.5001C272.9 66.7001 275.4 73.2001 275.4 73.2001Z" fill="#2A1E33"/>
<path d="M277.2 74.7C274.8 72.6 273.1 69 275.2 65.4C277.4 61.8 280.9 61.3 282 62.7C283.1 64.1 283.5 66.4 282.5 69.1" stroke="#2A1E33" stroke-miterlimit="10" stroke-linecap="round" stroke-linejoin="round"/>
<path d="M217 319.9L218.2 322.7L214.4 337.4C213.9 339.3 214.5 341.2 216 342.5L234.7 314.9C236.5 312.3 236.1 308.7 233.8 306.6L229.6 302.7L217 319.9Z" fill="black"/>
<path d="M281.2 51.5999C281.2 51.5999 279.8 46.9 275.5 45.7" stroke="#2A1E33" stroke-miterlimit="10" stroke-linecap="round" stroke-linejoin="round"/>
<path d="M190.3 157.2L242 84.9001" stroke="#2A1E17" stroke-miterlimit="10" stroke-linecap="round" stroke-linejoin="round"/>
<path d="M263.4 89.9001C261.5 92.3001 260.7 102.8 269.3 103.4C277.9 104.1 283.4 100.3 283.4 100.3" stroke="#2A1E17" stroke-miterlimit="10" stroke-linecap="round" stroke-linejoin="round"/>
<path d="M148.7 56.6001C148.7 56.6001 154.6 64.4001 155.5 67.2001" stroke="#2A1E17" stroke-miterlimit="10" stroke-linecap="round" stroke-linejoin="round"/>
<path d="M370.4 161.6C370.4 161.6 374.4 164.9 382.2 160.6C385.1 159.1 383 155.5 379.4 156.4C375.8 157.3 371.5 155.9 371.5 155.9" stroke="#2A1E17" stroke-miterlimit="10" stroke-linecap="round" stroke-linejoin="round"/>
<path d="M386.9 155.3C386.9 155.3 390.7 159.7 390.6 162.4" stroke="#2A1E17" stroke-miterlimit="10" stroke-linecap="round" stroke-linejoin="round"/>
<path d="M331 154.8C331 154.8 334.4 150.2 338.8 149.9" stroke="#2A1E17" stroke-miterlimit="10" stroke-linecap="round" stroke-linejoin="round"/>
<path d="M186.4 94.4C186.4 94.4 188.4 88.2 194.8 87" stroke="#2A1E17" stroke-miterlimit="10" stroke-linecap="round" stroke-linejoin="round"/>
<path d="M203.8 189L196.1 203.6C196.1 203.6 170.9 246.3 179.4 273.9" stroke="#2A1E17" stroke-miterlimit="10" stroke-linecap="round" stroke-linejoin="round"/>
<path d="M226.1 238L250.9 195.4C250.9 195.4 283.5 148.2 286.8 141.5L298.3 120.2" stroke="#2A1E17" stroke-miterlimit="10" stroke-linecap="round" stroke-linejoin="round"/>
<path d="M193.7 161.7C193.7 161.7 237.9 193.9 251 195.5" stroke="#2A1E17" stroke-miterlimit="10" stroke-linecap="round" stroke-linejoin="round"/>
<path d="M216.7 82.5C216.7 82.5 216.7 102.7 222.1 111" stroke="#2A1E17" stroke-miterlimit="10" stroke-linecap="round" stroke-linejoin="round"/>
<path d="M314 122.3C312.6 130.6 294.2 148.1 294.2 148.1" stroke="#2A1E17" stroke-miterlimit="10" stroke-linecap="round" stroke-linejoin="round"/>
<path d="M176.4 226C177.836 226 179 224.836 179 223.4C179 221.964 177.836 220.8 176.4 220.8C174.964 220.8 173.8 221.964 173.8 223.4C173.8 224.836 174.964 226 176.4 226Z" fill="#2A1E17"/>
<path d="M422.5 279.7L421 269.7L429.6 275.4L425.1 276.3L422.5 279.7Z" stroke="#2A1E17" stroke-miterlimit="10" stroke-linecap="round" stroke-linejoin="round"/>
<path d="M138.7 108.5C122.5 94.2001 95.6998 129.9 193.7 243.4C250.3 308.9 294.7 314.8 300.7 292C311.5 251.1 272.5 240.8 287 256.8C308.1 280.1 368.1 285 412.8 263.3C456.9 241.9 429.8 208.6 427.1 206.6" stroke="#2A1E17" stroke-miterlimit="10" stroke-linecap="round" stroke-linejoin="round"/>
<path d="M413.6 265.6C415.036 265.6 416.2 264.436 416.2 263C416.2 261.564 415.036 260.4 413.6 260.4C412.164 260.4 411 261.564 411 263C411 264.436 412.164 265.6 413.6 265.6Z" fill="#2A1E17"/>
<path d="M375.5 284.4L453.2 240.6" stroke="#2A1E17" stroke-miterlimit="10" stroke-linecap="round" stroke-linejoin="round"/>
<path d="M140.4 113.2C141.836 113.2 143 112.036 143 110.6C143 109.164 141.836 108 140.4 108C138.964 108 137.8 109.164 137.8 110.6C137.8 112.036 138.964 113.2 140.4 113.2Z" fill="#2A1E17"/>
<path d="M207.2 62.1001C210.293 62.1001 212.8 59.5929 212.8 56.5001C212.8 53.4074 210.293 50.9001 207.2 50.9001C204.107 50.9001 201.6 53.4074 201.6 56.5001C201.6 59.5929 204.107 62.1001 207.2 62.1001Z" fill="#FF6D66"/>
<path d="M105.1 13.5C103.7 13.5 102.6 14.6 102.6 16C102.6 17.4 103.7 18.5 105.1 18.5C106.5 18.5 107.6 17.4 107.6 16C107.6 14.6 106.5 13.5 105.1 13.5Z" fill="#A0C6F4"/>
<path d="M436.5 320.7C437.881 320.7 439 319.581 439 318.2C439 316.819 437.881 315.7 436.5 315.7C435.119 315.7 434 316.819 434 318.2C434 319.581 435.119 320.7 436.5 320.7Z" fill="#FAD8B0"/>
<path d="M392.3 206.6L365.7 194.1C363.6 193.1 363.6 190 365.8 189.1L415.3 167.3C416 167 416.8 167 417.5 167.3L451.5 181.9L392.3 206.6Z" fill="#2A1E33"/>
<path d="M390.7 165.5C390.8 176.5 392.3 206.5 392.3 206.5L451.4 181.8L450.1 140C450 137.4 447.4 135.8 445 136.8L394.1 160C392 161.1 390.7 163.2 390.7 165.5Z" fill="#C6CBCB"/>
<path d="M392.3 206.6L451.4 181.9L450.1 140.1C450.1 140.1 449.7 135.5 445 136.9" stroke="#2A1E17" stroke-miterlimit="10" stroke-linecap="round" stroke-linejoin="round"/>
<path d="M421 176.5L424.9 167.1" stroke="#2A1E17" stroke-miterlimit="10" stroke-linecap="round" stroke-linejoin="round"/>
<path d="M424.9 176.5L428.9 167.1" stroke="#2A1E17" stroke-miterlimit="10" stroke-linecap="round" stroke-linejoin="round"/>
<path d="M115.8 279.5C117.181 279.5 118.3 278.381 118.3 277C118.3 275.619 117.181 274.5 115.8 274.5C114.419 274.5 113.3 275.619 113.3 277C113.3 278.381 114.419 279.5 115.8 279.5Z" fill="#FF6D66"/>
<path d="M324.3 292.6C326.178 292.6 327.7 291.078 327.7 289.2C327.7 287.322 326.178 285.8 324.3 285.8C322.422 285.8 320.9 287.322 320.9 289.2C320.9 291.078 322.422 292.6 324.3 292.6Z" fill="#FF6D66"/>
<path d="M141.4 313.6C145.4 315.5 157.1 320.4 172.6 320.3C173.4 320.3 174.1 321 174 321.9L171.8 339C171.7 339.6 171.3 340.1 170.7 340.2C166.3 341 148.7 343.4 135.5 332.3C135.1 332 134.9 331.4 135.1 330.9L139.5 314.6C139.7 313.7 140.6 313.3 141.4 313.6Z" fill="#FFF7DC"/>
<path d="M143 318.7C143 318.7 150.6 329.4 153.3 330.9C156 332.4 170.7 323.7 170.7 323.7" stroke="#2A1E17" stroke-miterlimit="10" stroke-linecap="round" stroke-linejoin="round"/>
<path d="M160.5 329.4L168.5 337.7" stroke="#2A1E17" stroke-miterlimit="10" stroke-linecap="round" stroke-linejoin="round"/>
<path d="M149.4 327.8L140 330.4" stroke="#2A1E17" stroke-miterlimit="10" stroke-linecap="round" stroke-linejoin="round"/>
<path d="M386.6 111H377.7V119.9H386.6V111Z" fill="#FFE1C0"/>
<path d="M378.9 231.7L381.6 236.4L384.3 241H378.9H373.6L376.3 236.4L378.9 231.7Z" fill="#A0C6F4"/>
<path d="M163.9 27.6999L164.6 6.79994C164.5 4.79994 165.3 4.19994 166.5 3.99994C172.2 2.69994 189.5 -1.10006 208.2 4.39994C210.6 5.09994 210.5 6.39994 210.5 7.59994L209.8 27.4999C209.8 28.9999 208.2 29.9999 206.5 29.7999C201 28.9999 193.6 28.6999 186 28.7999C178.2 28.8999 171.2 29.3999 166.3 30.3999C164.5 30.6999 163.8 29.2999 163.9 27.6999Z" stroke="#2A1E17" stroke-miterlimit="10" stroke-linecap="round" stroke-linejoin="round"/>
<path d="M170.2 24.6L181.1 11.8L193.2 23.7C189.1 22.4 170.2 24.6 170.2 24.6Z" stroke="#2A1E17" stroke-miterlimit="10" stroke-linecap="round" stroke-linejoin="round"/>
<path d="M187.8 17.7L196.7 10.7L204.1 16L204.4 24.3L193.2 23.8" stroke="#2A1E17" stroke-miterlimit="10" stroke-linecap="round" stroke-linejoin="round"/>
<path d="M175.054 10.9016C175.154 9.91253 174.255 9.01166 173.047 8.88943C171.838 8.7672 170.777 9.46989 170.677 10.4589C170.577 11.448 171.476 12.3488 172.684 12.4711C173.893 12.5933 174.954 11.8906 175.054 10.9016Z" stroke="#2A1E17" stroke-miterlimit="10" stroke-linecap="round" stroke-linejoin="round"/>
<path d="M375.3 299.4L382.6 312.9C383.4 314.1 383.1 314.8 382.4 315.4C379.3 318.3 369.7 327.2 355.7 330.6C353.9 331 353.5 330.2 353.1 329.5L346.1 316.6C345.6 315.7 346.2 314.4 347.3 313.9C351.1 312.4 355.9 309.8 360.7 306.9C365.6 303.9 369.9 301 372.6 298.6C373.7 297.7 374.7 298.3 375.3 299.4Z" stroke="#2A1E17" stroke-miterlimit="10" stroke-linecap="round" stroke-linejoin="round"/>
<path d="M372.4 303.7L370.2 315.9L358.1 312.8C361.2 312.1 372.4 303.7 372.4 303.7Z" stroke="#2A1E17" stroke-miterlimit="10" stroke-linecap="round" stroke-linejoin="round"/>
<path d="M363.7 314.6L360.8 322.4L354.1 321.7L350.8 316.6L358.1 312.8" stroke="#2A1E17" stroke-miterlimit="10" stroke-linecap="round" stroke-linejoin="round"/>
<path d="M376.441 314.697C377.244 314.329 377.654 313.502 377.356 312.849C377.057 312.196 376.164 311.965 375.36 312.332C374.556 312.699 374.147 313.526 374.445 314.179C374.744 314.832 375.637 315.064 376.441 314.697Z" stroke="#2A1E17" stroke-miterlimit="10" stroke-linecap="round" stroke-linejoin="round"/>
<path d="M339.6 68.2001L369.4 91.0001C370.1 91.5001 371 91.4001 371.5 90.7001L376 84.6001C376.5 84.0001 376.4 83.1001 375.7 82.6001L346.3 59.1001C345.6 58.6001 344.7 58.7001 344.2 59.4001L339.3 66.2001C338.8 66.8001 338.9 67.7001 339.6 68.2001Z" fill="white" stroke="#2A1E17" stroke-miterlimit="10" stroke-linecap="round" stroke-linejoin="round"/>
<path d="M341.8 67.2001L349 72.2001L353.3 67.2001L346 61.1001L341.8 67.2001Z" fill="#FF6D66"/>
<path d="M351.7 74.2L359 80L362.8 75.2L355.6 69.3L351.7 74.2Z" fill="#FAD8B0"/>
<path d="M361.4 82.2001L368.6 87.2001L372.1 82.8001L365.2 77.1001L361.4 82.2001Z" fill="#A0C6F4"/>
<path d="M399 36.3L405.8 93.4C405.9 94.7 407.1 95.5 408.3 95.4L419.8 93.8C421 93.6 421.9 92.6 421.7 91.3L416.2 34C416.1 32.7 414.9 31.8 413.6 32L400.9 33.9C399.7 34 398.9 35.1 399 36.3Z" fill="white" stroke="#2A1E17" stroke-miterlimit="10" stroke-linecap="round" stroke-linejoin="round"/>
<path d="M402.5 37.5999L404.6 50.9999L414.799 50.1999L413.7 35.8999L402.5 37.5999Z" fill="#FF6D66"/>
<path d="M405.399 56.1L406.799 70.2L416.199 69.3L414.899 55L405.399 56.1Z" fill="#91BA83"/>
<path d="M407 75.2L409.1 88.5L417.7 87.6L416.6 74L407 75.2Z" fill="#FAD8B0"/>
<path d="M384.2 48.5L403 103.8C403.3 104.7 404.4 105.2 405.3 104.9L417.1 100.7C418 100.4 418.5 99.4 418.2 98.5L400.5 42.7C400.2 41.7 399.1 41.2 398.2 41.6L385.3 46.4C384.4 46.5 383.9 47.5 384.2 48.5Z" fill="white" stroke="#2A1E17" stroke-miterlimit="10" stroke-linecap="round" stroke-linejoin="round"/>
<path d="M388 49.4999L392.9 62.0999L402.7 59.1999L398.6 45.3999L388 49.4999Z" fill="#A0C6F4"/>
<path d="M394.7 66.8999L399 80.3999L408 77.5999L403.8 63.8999L394.7 66.8999Z" fill="#F9865F"/>
<path d="M400.2 85.2L405.1 97.9L413.2 95.2L409.4 82L400.2 85.2Z" fill="#FAD8B0"/>
<path d="M242.5 142.1H147.6C144.6 142.1 142.1 139.6 142.1 136.6V123.8C142.1 120.8 144.6 118.3 147.6 118.3H242.5C245.5 118.3 248 120.8 248 123.8V136.6C248 139.6 245.5 142.1 242.5 142.1Z" fill="#7595EC"/>
<path d="M206.9 128.9H155.1C154.1 128.9 153.3 128.1 153.3 127.1C153.3 126.1 154.1 125.3 155.1 125.3H206.9C207.9 125.3 208.7 126.1 208.7 127.1C208.7 128.1 207.9 128.9 206.9 128.9Z" fill="white"/>
<path d="M153.9 133.6H241.9" stroke="#2A1E17" stroke-miterlimit="10" stroke-linecap="round" stroke-linejoin="round"/>
<path d="M110.4 75.1L108.9 73.5L103.9 78L105.4 79.6C106 80.3 107.1 80.3 107.8 79.7L110.3 77.5C110.9 76.9 111 75.8 110.4 75.1Z" fill="#91BA83"/>
<path d="M101.7 64.5001L108.8 72.2001C109.2 72.6001 109.1 73.2001 108.7 73.6001L103.8 78.1001C103.4 78.5001 102.8 78.4001 102.4 78.0001L95.3001 70.3001C94.9001 69.9001 95 69.3001 95.4 68.9001L100.3 64.4001C100.7 64.1001 101.3 64.1001 101.7 64.5001Z" stroke="#2A1E17" stroke-miterlimit="10" stroke-linecap="round" stroke-linejoin="round"/>
<path d="M87.9996 105.4H79.0996V113.5H87.9996V105.4Z" fill="#FF6D66"/>
<path d="M79.0998 100.2V105.4H73.7998" stroke="#2A1E17" stroke-miterlimit="10" stroke-linecap="round" stroke-linejoin="round"/>
<path d="M380.3 13.8999H371.4V21.9999H380.3V13.8999Z" fill="#FAD8B0"/>
<path d="M371.4 8.69995V13.9H366.1" stroke="#2A1E17" stroke-miterlimit="10" stroke-linecap="round" stroke-linejoin="round"/>
<path d="M131.3 64.0001C39.2997 25.9001 -31.5003 99.3001 141.9 211.7C155.6 220.6 176.5 223.7 176.5 223.7" stroke="#2A1E17" stroke-miterlimit="10" stroke-linecap="round" stroke-linejoin="round"/>
<path d="M46.7001 69.2C48.136 69.2 49.3001 68.0359 49.3001 66.6C49.3001 65.1641 48.136 64 46.7001 64C45.2642 64 44.1001 65.1641 44.1001 66.6C44.1001 68.0359 45.2642 69.2 46.7001 69.2Z" fill="#2A1E17"/>
<path d="M30 52.2001L32.9 49.4001L39.5 53.2001L42.8 63.4001L32.7 59.2001L30 52.2001Z" stroke="#2A1E17" stroke-miterlimit="10" stroke-linecap="round" stroke-linejoin="round"/>
<path d="M32.8999 49.4001L29.9999 52.2001L28.3999 50.2001L31.1999 47.6001L32.8999 49.4001Z" stroke="#2A1E17" stroke-miterlimit="10" stroke-linecap="round" stroke-linejoin="round"/>
<path d="M42.7997 63.4002L36.1997 56.2002" stroke="#2A1E17" stroke-miterlimit="10" stroke-linecap="round" stroke-linejoin="round"/>
<path d="M58.7998 247L65.8998 283.8C66.0998 284.6 66.7998 285.1 67.6998 285L75.0998 283.4C75.8998 283.2 76.3998 282.5 76.1998 281.7L69.7998 244.6C69.6998 243.8 68.8998 243.2 67.9998 243.4L59.7998 245.2C59.0998 245.5 58.5998 246.2 58.7998 247Z" fill="white" stroke="#2A1E17" stroke-miterlimit="10" stroke-linecap="round" stroke-linejoin="round"/>
<path d="M61.0996 247.7L63.0996 256.3L69.6996 255.3L68.2996 246L61.0996 247.7Z" fill="#FF6D66"/>
<path d="M63.7998 259.6L65.3998 268.7L71.4998 267.7L69.9998 258.4L63.7998 259.6Z" fill="#FAD8B0"/>
<path d="M65.7998 271.9L67.7998 280.5L73.2998 279.5L71.9998 270.7L65.7998 271.9Z" fill="#A0C6F4"/>
<path d="M263.4 339.3L293.6 331.2L294.8 334.5L264.2 342.4L263.4 339.3Z" stroke="#2A1E17" stroke-miterlimit="10" stroke-linecap="round" stroke-linejoin="round"/>
<path d="M259.2 335.1L260.1 337.8" stroke="#2A1E17" stroke-miterlimit="10" stroke-linecap="round" stroke-linejoin="round"/>
<path d="M258.4 336.9L260.9 336" stroke="#2A1E17" stroke-miterlimit="10" stroke-linecap="round" stroke-linejoin="round"/>
<path d="M257.8 345.6L259.4 350.7" stroke="#2A1E17" stroke-miterlimit="10" stroke-linecap="round" stroke-linejoin="round"/>
<path d="M256.4 348.8L260.9 347.4" stroke="#2A1E17" stroke-miterlimit="10" stroke-linecap="round" stroke-linejoin="round"/>
<path d="M250.9 337L253 343.9" stroke="#2A1E17" stroke-miterlimit="10" stroke-linecap="round" stroke-linejoin="round"/>
<path d="M248.7 341.3L255.1 339.3" stroke="#2A1E17" stroke-miterlimit="10" stroke-linecap="round" stroke-linejoin="round"/>
<path d="M43.2001 11.2L24.1001 2.50005L24.8001 0.300049L44.1001 9.20005L43.2001 11.2Z" stroke="#2A1E17" stroke-width="0.6707" stroke-miterlimit="10" stroke-linecap="round" stroke-linejoin="round"/>
<path d="M43.6001 15.1L44.3001 13.3" stroke="#2A1E17" stroke-width="0.6707" stroke-miterlimit="10" stroke-linecap="round" stroke-linejoin="round"/>
<path d="M44.8001 14.6001L43.1001 13.9001" stroke="#2A1E17" stroke-width="0.6707" stroke-miterlimit="10" stroke-linecap="round" stroke-linejoin="round"/>
<path d="M48.7998 10.3001L50.0998 6.90015" stroke="#2A1E17" stroke-width="0.6707" stroke-miterlimit="10" stroke-linecap="round" stroke-linejoin="round"/>
<path d="M50.8999 9.20024L47.8999 8.00024" stroke="#2A1E17" stroke-width="0.6707" stroke-miterlimit="10" stroke-linecap="round" stroke-linejoin="round"/>
<path d="M48.7002 17.7L50.5002 13.2" stroke="#2A1E17" stroke-width="0.6707" stroke-miterlimit="10" stroke-linecap="round" stroke-linejoin="round"/>
<path d="M51.6 16.4L47.5 14.7" stroke="#2A1E17" stroke-width="0.6707" stroke-miterlimit="10" stroke-linecap="round" stroke-linejoin="round"/>
<path d="M114.6 172.6C101.1 162.9 87.9001 147.8 93.7001 132.3C93.7001 132.3 103 126.1 117.7 133.8C132.4 141.5 132.4 141.5 132.4 141.5L114.6 172.6Z" fill="#FAD8B0"/>
<path d="M108.5 237.2C102.4 234.3 76.5998 220.9 71.8998 197.8C67.8998 177.9 83.0998 151.1 90.7998 139.2C90.2998 154.9 106.1 168.2 113.7 173.7C121.4 179.3 127.1 182 134.9 184.9L108.5 237.2Z" fill="white"/>
<path d="M89.5999 144C91.2999 154.5 99.1999 165.3 112.8 175.1C120.1 180.4 125.6 183.1 132.8 185.9L107.8 235.3C100.2 231.5 77.5999 218.6 73.3999 197.6C69.8999 180.1 81.7999 156.9 89.5999 144ZM93.6999 132.3C93.6999 132.3 65.0999 171 70.4999 198.1C75.8999 225.2 109.2 239.1 109.2 239.1L137.1 184.1C128.4 180.9 122.7 178.3 114.6 172.5C101.1 162.9 87.8999 147.8 93.6999 132.3Z" fill="#FAD8B0"/>
<path d="M86.2002 154.8C86.2002 154.8 87.9002 170.4 103.4 178.7" stroke="#2A1E17" stroke-miterlimit="10" stroke-linecap="round" stroke-linejoin="round"/>
<path d="M111.7 184.3L127.3 192.6" stroke="#2A1E17" stroke-miterlimit="10" stroke-linecap="round" stroke-linejoin="round"/>
<path d="M88.4004 177C88.4004 177 93.4004 188.1 109.5 195.3" stroke="#2A1E17" stroke-miterlimit="10" stroke-linecap="round" stroke-linejoin="round"/>
<path d="M75.6001 178.7C75.6001 178.7 76.2001 190.4 83.9001 194.3" stroke="#2A1E17" stroke-miterlimit="10" stroke-linecap="round" stroke-linejoin="round"/>
<path d="M93.4003 138.2C93.4003 138.2 92.0003 153.2 114.6 172.6" stroke="#2A1E17" stroke-miterlimit="10" stroke-linecap="round" stroke-linejoin="round"/>
<path d="M101.7 140.9C101.7 140.9 108.9 140.3 119.5 148.1" stroke="#2A1E17" stroke-miterlimit="10" stroke-linecap="round" stroke-linejoin="round"/>
<path d="M67.8002 188.8C67.3002 196.2 68.3002 223.2 107.3 240.3" stroke="#2A1E17" stroke-miterlimit="10" stroke-linecap="round" stroke-linejoin="round"/>
<path d="M316.8 173.8L300.3 207C300.3 207 311.5 211.1 302.7 224C302.7 224 323.4 232.6 337 210.3C350.6 188 316.8 173.8 316.8 173.8Z" fill="#91BA83"/>
<path d="M278.9 275.1C270.5 275.1 261.7 271.7 252.6 264.9L283.5 213.6L301.9 225.2H302C302.2 225.3 306.3 226.9 312.1 226.9C316.8 226.9 322.6 225.8 328.3 221.8L305.7 260.5C305.7 260.7 296 275.1 278.9 275.1Z" fill="white"/>
<path d="M284.1 215.8L301.1 226.5L301.3 226.6L301.5 226.7C301.7 226.8 306 228.6 312.1 228.6C315.6 228.6 319.9 228 324.2 226.1L304.5 259.9C303.8 260.8 294.6 273.7 278.9 273.7C271.2 273.7 263 270.7 254.6 264.6L284.1 215.8ZM337 210.2C329.3 222.8 319.4 225.6 312.2 225.6C306.6 225.6 302.7 224 302.7 224L283.1 211.7L250.7 265.4C261.6 273.8 271 276.7 279 276.7C297.1 276.7 307.2 261.5 307.2 261.5L337 210.2Z" fill="#96BD89"/>
<path d="M300.3 206.9C300.3 206.9 312.6 211.3 302.7 223.9" stroke="#2A1E17" stroke-miterlimit="10" stroke-linecap="round" stroke-linejoin="round"/>
<path d="M282.7 210.4C282.7 210.4 299.5 225.8 308.8 225.7C318.1 225.6 329 223.4 335.4 212.3" stroke="#2A1E17" stroke-miterlimit="10" stroke-linecap="round" stroke-linejoin="round"/>
<path d="M284.8 230.4C284.8 230.4 296.3 240.6 309.2 237.4" stroke="#2A1E17" stroke-miterlimit="10" stroke-linecap="round" stroke-linejoin="round"/>
<path d="M296.9 245.7C296.9 245.7 303 250.2 311.4 245.9" stroke="#2A1E17" stroke-miterlimit="10" stroke-linecap="round" stroke-linejoin="round"/>
<path d="M269.1 252C269.1 252 283.1 265.9 305 256.7" stroke="#2A1E17" stroke-miterlimit="10" stroke-linecap="round" stroke-linejoin="round"/>
<path d="M276.7 238.4C276.7 238.4 282.4 242.5 286 243.8" stroke="#2A1E17" stroke-miterlimit="10" stroke-linecap="round" stroke-linejoin="round"/>
<path d="M319.6 183.4C319.6 183.4 332.3 187.6 333.9 204.4" stroke="#2A1E17" stroke-miterlimit="10" stroke-linecap="round" stroke-linejoin="round"/>
<path d="M326 204.2C326 204.2 331.9 213.3 321.9 222.4" stroke="#2A1E17" stroke-miterlimit="10" stroke-linecap="round" stroke-linejoin="round"/>
<path d="M251.9 267.9C251.9 267.9 283.9 295.3 307.1 263.3" stroke="#2A1E17" stroke-miterlimit="10" stroke-linecap="round" stroke-linejoin="round"/>
<path d="M20.7998 163.4H28.1998" stroke="#FF6D66" stroke-miterlimit="10" stroke-linecap="round" stroke-linejoin="round"/>
<path d="M436.5 73.7H444" stroke="#FF6D66" stroke-miterlimit="10" stroke-linecap="round" stroke-linejoin="round"/>
<path d="M236.4 22.5H243.8" stroke="#FAD8B0" stroke-miterlimit="10"/>
<path d="M450.8 112.4L458.1 113.7" stroke="#FAD8B0" stroke-miterlimit="10"/>
<path d="M157.6 298.6H165.1" stroke="#A0C6F4" stroke-miterlimit="10" stroke-linecap="round" stroke-linejoin="round"/>
<path d="M466.9 208.1C468.281 208.1 469.4 206.981 469.4 205.6C469.4 204.219 468.281 203.1 466.9 203.1C465.519 203.1 464.4 204.219 464.4 205.6C464.4 206.981 465.519 208.1 466.9 208.1Z" fill="#91BA83"/>
<path d="M2.5 89.4001C3.88071 89.4001 5 88.2809 5 86.9001C5 85.5194 3.88071 84.4001 2.5 84.4001C1.11929 84.4001 0 85.5194 0 86.9001C0 88.2809 1.11929 89.4001 2.5 89.4001Z" fill="#91BA83"/>
</g>
<defs>
<clipPath id="clip0_9_34">
<rect width="469.3" height="351.2" fill="white"/>
</clipPath>
</defs>
</svg>
